
<svg version="1.1" id="Layer_1" xmlns="http://www.w3.org/2000/svg" xmlns:xlink="http://www.w3.org/1999/xlink" x="0px" y="0px"
	 width="100%" viewBox="0 0 500 500" enable-background="new 0 0 500 500" xml:space="preserve">
<path fill="#FCFCFC" opacity="1.000000" stroke="none" 
	d="
M168.139984,212.999924 
	C168.139969,199.690872 168.139969,186.881821 168.139969,173.769119 
	C187.021835,173.769119 205.587509,173.769119 224.644150,173.769119 
	C224.644150,184.253632 224.644150,194.482422 224.644150,204.711212 
	C224.953812,204.809906 225.263474,204.908600 225.573135,205.007294 
	C226.140701,204.179688 226.896347,203.424744 227.248291,202.513824 
	C235.640335,180.793503 257.350861,171.068680 278.925323,171.622070 
	C312.556030,172.484680 332.369843,196.452271 334.048767,225.986023 
	C335.285889,247.748947 334.614410,269.622406 334.719604,291.446960 
	C334.790283,306.110626 334.735504,320.774933 334.723419,335.438934 
	C334.722626,336.400848 334.607117,337.362701 334.528748,338.575562 
	C314.812195,338.575562 295.383789,338.575562 275.185272,338.575562 
	C275.185272,336.835052 275.185516,335.085083 275.185272,333.335114 
	C275.181183,304.506989 275.141632,275.678802 275.196533,246.850784 
	C275.211182,239.167953 274.288757,231.755188 268.540344,226.097321 
	C261.243835,218.915756 252.213257,218.126755 243.004852,221.003586 
	C233.802841,223.878433 229.342697,231.111099 228.057190,240.372940 
	C227.669785,243.164047 227.693298,246.025360 227.690536,248.854660 
	C227.663193,276.849579 227.669937,304.844513 227.667053,332.839447 
	C227.666870,334.643616 227.667023,336.447784 227.667023,338.540894 
	C207.825226,338.540894 188.400681,338.540894 168.140015,338.540894 
	C168.140015,296.958130 168.140015,255.229034 168.139984,212.999924 
z"/>
</svg>